Safe House 2012 New Source TS V2 XViD DTRG

Format                                   : AVI
Format/Info                              : Audio Video Interleave
File size                                : 1.52 GiB
Duration                                 : 1h 49mn
Overall bit rate                         : 1 992 Kbps
Writing library                          : VirtualDub build 32842/release

Video
ID                                       : 0
Format                                   : MPEG-4 Visual
Format profile                           : Advanced Simple@L5
Format settings, BVOP                    : 2
Format settings, QPel                    : No
Format settings, GMC                     : No warppoints
Format settings, Matrix                  : Default (H.263)
Muxing mode                              : Packed bitstream
Codec ID                                 : XVID
Codec ID/Hint                            : XviD
Duration                                 : 1h 49mn
Bit rate                                 : 1 854 Kbps
Width                                    : 672 pixels
Height                                   : 282 pixels
Display aspect ratio                     : 2.40:1
Frame rate                               : 25.000 fps
Color space                              : YUV
Chroma subsampling                       : 4:2:0
Bit depth                                : 8 bits
Scan type                                : Progressive
Compression mode                         : Lossy
Bits/(Pixel*Frame)                       : 0.391
Stream size                              : 1.41 GiB (93%)
Writing library                          : XviD 64

Audio
ID                                       : 1
Format                                   : MPEG Audio
Format version                           : Version 1
Format profile                           : Layer 3
Codec ID                                 : 55
Codec ID/Hint                            : MP3
Duration                                 : 1h 49mn
Bit rate mode                            : Constant
Bit rate                                 : 128 Kbps
Channel(s)                               : 2 channels
Sampling rate                            : 44.1 KHz
Compression mode                         : Lossy
Stream size                              : 99.9 MiB (6%)
Alignment                                : Split accross interleaves
Interleave, duration                     : 40 ms (1.00 video frame)
Interleave, preload duration             : 500 ms
Writing library                          : LAME3.98.4UUUUUU'wà

 
http://www.imdb.com/title/tt1599348/


Ratings: 7.0/10 from 14,844 users   Metascore: 52/100 
Reviews: 103 user | 179 critic | 36 from Metacritic.com

A young CIA agent is tasked with looking after a fugitive in a safe house. But 
when the safe house is attacked, he finds himself on the run with his charge.
Director:
Daniel Espinosa
Writer:
David Guggenheim
Stars:
Denzel Washington, Ryan Reynolds and Robert Patrick 


Source Used:


Video..................P76......................Thanks

Audio .................INSPiRAL .........................Thanks


Poster:

 
http://i.imgur.com/o8iQO.jpg


Screenshots:

 
http://i.imgur.com/Hj6EU.jpg


ENJOY!